<svg width="2041" height="2041" viewBox="0 0 2041 2041" fill="none" xmlns="http://www.w3.org/2000/svg">
<circle cx="1020.5" cy="1020.5" r="1020.5" fill="#BA2C30"/>
<path d="M785.632 1418.6C831.04 1481.62 924.909 1628.81 937.122 1713.36C915.984 1740.37 885.451 1767.38 853.744 1795.56C874.882 1815.53 942.994 1877.77 954.737 1891.86L937.122 1932.96" stroke="black" stroke-width="5" stroke-linecap="round"/>
<path d="M772.715 1442.09C793.234 1501.77 813.524 1677.3 812.612 1775.6" stroke="black" stroke-width="5" stroke-linecap="round"/>
<path d="M597.738 1420.95C587.169 1503.15 576.6 1738.02 583.646 1809.66" stroke="black" stroke-width="5" stroke-linecap="round"/>
<path d="M593.041 1409.21C556.245 1472.62 478.895 1621.53 463.864 1709.84C476.781 1733.32 531.975 1787.34 553.113 1797.91L527.278 1834.32" stroke="black" stroke-width="5" stroke-linecap="round"/>
<path d="M768.017 1361.06V1396.29L958.26 1456.18L1107.4 2015.16C1106.62 1944.31 1124.08 1782.65 1200.17 1702.79C1309.39 1741.54 1351.66 1749.76 1473.79 1738.02" stroke="black" stroke-width="5" stroke-linecap="round"/>
<path d="M697.557 869.01C736.701 865.879 826.734 865.957 873.707 891.323C888.974 866.662 888.974 851.395 891.323 833.78C870.576 811.859 805.037 759.66 725.741 787.981C692.86 799.724 695.208 820.862 697.557 869.01Z" fill="white" stroke="white"/>
<path d="M465.038 888.974C489.699 879.971 558.046 867.366 634.143 888.974C667.024 804.422 611.83 746.879 550.765 746.879C504.965 746.879 424.641 782.814 465.038 888.974Z" fill="white" stroke="white"/>
<path d="M310.025 1756.81L393.403 1464.4L596.564 1393.94V1358.71C514.36 1341.09 380.486 1238.22 399.275 873.708" stroke="black" stroke-width="5" stroke-linecap="round"/>
<path d="M490.873 1304.69L434.505 1332.87L426.285 1249.5L320.594 1253.02L349.953 1135.58L217.253 1093.31C231.345 1065.91 274.795 1019.33 320.594 993.49C298.282 937.122 221.95 903.066 147.967 888.974L301.805 779.76C283.798 734.744 228.996 648.235 169.105 615.353C219.601 605.959 310.025 595.389 393.403 595.389C391.055 556.245 376.493 466.682 337.035 421.587C367.568 411.018 501.442 469.735 509.663 482.653C517.883 495.571 578.949 354.65 558.985 283.015C584.82 298.282 642.363 363.262 694.034 439.202C721.435 400.058 803.482 318.011 879.579 298.282C866.662 351.127 871.359 452.12 898.369 514.36L1078.04 452.12L970.003 636.491L1147.33 664.675L1007.58 798.55L1152.03 861.964C1134.8 876.448 1072.64 914.809 961.783 952.388C988.793 995.839 1020.5 1018.15 1075.69 1039.29C1056.12 1052.21 1004.76 1078.75 955.911 1081.57C961.783 1105.05 973.526 1137.93 988.793 1173.16L901.892 1193.13L947.691 1251.84L867.836 1277.68C858.833 1297.64 826.264 1342.27 768.017 1361.06" stroke="black" stroke-width="5" stroke-linecap="round"/>
<path d="M1658.17 1821.4C1648.77 1766.2 1638.2 1736.85 1594.75 1693.4C1651.12 1648.77 1689.87 1614.72 1711.01 1567.74C1754.46 1559.21 1822.57 1507.85 1767.38 1432.69C1783.82 1389.24 1783.82 1369.28 1783.82 1344.62L1767.38 1187.26C1755.64 1138.33 1693.4 1035.77 1635.85 985.27C1578.31 934.774 1278.85 826.735 1088.61 1046.34C1041.64 1114.45 1035.77 1119.14 1016.98 1156.72C1008.76 1184.91 1016.98 1210.74 1016.98 1210.74C1001.71 1243.62 944.168 1354.01 1034.59 1433.87C1016.98 1437.39 947.691 1536.03 1067.47 1567.74" stroke="black" stroke-width="5" stroke-linecap="round"/>
<path d="M1474.97 1236.58C1484.36 1284.73 1525.47 1314.08 1686.35 1309.39C1707.49 1364.58 1647.6 1470.27 1538.38 1451.48C1470.27 1438.56 1367.87 1367.16 1474.97 1236.58Z" fill="white" stroke="white"/>
<path d="M1331.21 1237.75C1321.82 1285.9 1280.71 1315.26 1119.83 1310.56C1098.69 1365.76 1158.58 1471.45 1267.8 1452.66C1335.91 1439.74 1438.31 1368.34 1331.21 1237.75Z" fill="white" stroke="white"/>
<path d="M1458.53 1730.97C1146.15 1730.97 1082.74 1574.79 1055.73 1493.76C1052.21 1512.55 1061.6 1557.17 1078.04 1567.74" stroke="black" stroke-width="5" stroke-linecap="round"/>
</svg>
