<svg width="1080" height="1080" viewBox="0 0 1080 1080" fill="none" xmlns="http://www.w3.org/2000/svg">
<rect width="1080" height="1080" fill="#11001E"/>
<path d="M488.224 519.712H525.809H558.308C559.005 519.712 559.698 519.816 560.364 520.02L571.148 523.333C575.247 524.593 579.292 521.237 578.813 516.977C578.386 513.188 581.581 509.98 585.372 510.392L589.856 510.879C595.231 511.463 599.21 505.992 597 501.058L592.973 492.069C591.53 488.848 592.711 485.056 595.729 483.224L605.493 477.295C609.546 474.835 610.031 469.141 606.454 466.03L595.717 456.693C592.085 453.533 592.652 447.735 596.828 445.339L617.686 433.374C622.72 430.486 622.255 423.077 616.898 420.842L596.345 412.264C591.932 410.423 590.623 404.797 593.771 401.197L616.434 375.275C620.599 370.511 616.807 363.104 610.506 363.699L577.826 366.784C573.492 367.193 569.839 363.589 570.191 359.25L573.366 320.073C573.872 313.825 566.542 310.112 561.805 314.218L523.119 347.741C520.311 350.174 516.091 349.99 513.506 347.321L487.511 320.481C483.135 315.962 475.483 319.06 475.483 325.351V365.058C475.483 369.608 471.211 372.949 466.795 371.852L437.881 364.668C431.624 363.114 426.77 370.129 430.432 375.437L447.485 400.156C449.912 403.674 448.648 408.525 444.814 410.412L427.567 418.899C422.39 421.446 422.345 428.81 427.49 431.421L447.344 441.498C451.715 443.717 452.511 449.626 448.882 452.922L438.931 461.96C435.495 465.08 435.993 470.621 439.931 473.079L452.564 480.967C455.483 482.789 456.644 486.462 455.304 489.631L452.357 496.6C450.489 501.017 453.515 505.962 458.298 506.308L466.853 506.928C470.521 507.194 473.027 510.75 472.045 514.294C470.878 518.507 474.595 522.457 478.872 521.546L486.767 519.865C487.246 519.763 487.734 519.712 488.224 519.712Z" fill="#9ACEE8"/>
<rect x="316" y="269" width="448" height="448" rx="224" fill="#7C5A41"/>
<rect x="340" y="340" width="400" height="400" rx="200" fill="#FDCAA5"/>
<circle cx="354" cy="599" r="48" fill="#FDCAA5"/>
<circle cx="725" cy="599" r="48" fill="#FDCAA5"/>
<circle cx="456" cy="521" r="60" fill="white"/>
<circle cx="624" cy="521" r="60" fill="white"/>
<path opacity="0.12" d="M533.571 596.321C531.879 594.901 529.356 595.122 527.936 596.814C526.516 598.506 526.737 601.029 528.429 602.449L533.571 596.321ZM548.998 577.936C547.306 576.516 544.783 576.737 543.363 578.429C541.943 580.121 542.163 582.644 543.856 584.064L548.998 577.936ZM528.429 602.449L543.75 615.305L548.892 609.177L533.571 596.321L528.429 602.449ZM564.319 590.792L548.998 577.936L543.856 584.064L559.177 596.92L564.319 590.792ZM566.291 613.333C571.971 606.564 571.088 596.472 564.319 590.792L559.177 596.92C562.561 599.76 563.003 604.806 560.163 608.191L566.291 613.333ZM543.75 615.305C550.519 620.985 560.611 620.102 566.291 613.333L560.163 608.191C557.323 611.575 552.277 612.017 548.892 609.177L543.75 615.305Z" fill="black"/>
<path opacity="0.12" d="M396 460.984C405.249 436.14 432.887 423.498 457.731 432.746" stroke="black" stroke-width="8" stroke-linecap="round"/>
<path opacity="0.12" d="M683.73 460.984C674.482 436.14 646.844 423.498 622 432.746" stroke="black" stroke-width="8" stroke-linecap="round"/>
<path opacity="0.12" d="M498 688.891C516.671 670.072 563.059 670.312 581.878 688.983" stroke="black" stroke-width="8" stroke-linecap="round"/>
<path d="M454.671 514.883C454.991 513.467 457.009 513.467 457.329 514.883C457.536 515.801 458.59 516.238 459.385 515.735C460.613 514.96 462.04 516.387 461.265 517.615C460.762 518.41 461.199 519.464 462.117 519.671C463.533 519.991 463.533 522.009 462.117 522.329C461.199 522.536 460.762 523.59 461.265 524.385C462.04 525.613 460.613 527.04 459.385 526.265C458.59 525.762 457.536 526.199 457.329 527.117C457.009 528.533 454.991 528.533 454.671 527.117C454.464 526.199 453.41 525.762 452.615 526.265C451.387 527.04 449.96 525.613 450.735 524.385C451.238 523.59 450.801 522.536 449.883 522.329C448.467 522.009 448.467 519.991 449.883 519.671C450.801 519.464 451.238 518.41 450.735 517.615C449.96 516.387 451.387 514.96 452.615 515.735C453.41 516.238 454.464 515.801 454.671 514.883Z" fill="black"/>
<path d="M622.671 514.883C622.991 513.467 625.009 513.467 625.329 514.883C625.536 515.801 626.59 516.238 627.385 515.735C628.613 514.96 630.04 516.387 629.265 517.615C628.762 518.41 629.199 519.464 630.117 519.671C631.533 519.991 631.533 522.009 630.117 522.329C629.199 522.536 628.762 523.59 629.265 524.385C630.04 525.613 628.613 527.04 627.385 526.265C626.59 525.762 625.536 526.199 625.329 527.117C625.009 528.533 622.991 528.533 622.671 527.117C622.464 526.199 621.41 525.762 620.615 526.265C619.387 527.04 617.96 525.613 618.735 524.385C619.238 523.59 618.801 522.536 617.883 522.329C616.467 522.009 616.467 519.991 617.883 519.671C618.801 519.464 619.238 518.41 618.735 517.615C617.96 516.387 619.387 514.96 620.615 515.735C621.41 516.238 622.464 515.801 622.671 514.883Z" fill="black"/>
<rect x="396" y="618" width="120" height="29" fill="#FDCAA5"/>
<rect x="564" y="618" width="120" height="29" fill="#FDCAA5"/>
</svg>
