<svg width="1088" height="1088" viewBox="0 0 1088 1088" fill="none" xmlns="http://www.w3.org/2000/svg">
<g filter="url(#filter0_d_1_10)">
<rect width="1080" height="1080" transform="translate(4)" fill="#11001E"/>
<path d="M405.917 780.146H537.966H653.168C653.867 780.146 654.561 780.251 655.229 780.457L714.94 798.855C719.759 800.339 724.52 796.396 723.958 791.384L719.724 753.653C719.224 749.199 722.982 745.429 727.438 745.914L789.82 752.709C795.192 753.294 799.173 747.829 796.969 742.895L764.459 670.111C763.022 666.893 764.201 663.11 767.21 661.277L834.308 620.417C838.351 617.955 838.836 612.274 835.269 609.163L761.873 545.141C758.251 541.982 758.818 536.196 762.984 533.799L886.731 462.601C891.755 459.71 891.29 452.315 885.942 450.077L760.228 397.458C755.823 395.614 754.516 390 757.654 386.401L880.541 245.432C884.697 240.665 880.901 233.267 874.605 233.863L697.728 250.611C693.394 251.022 689.74 247.418 690.091 243.079L706.169 44.1033C706.674 37.8511 699.334 34.1414 694.599 38.2561L516.315 193.207C513.504 195.649 509.274 195.464 506.687 192.786L375.617 57.053C371.244 52.5243 363.581 55.62 363.581 61.9155V264.826C363.581 269.378 359.305 272.719 354.889 271.619L189 230.283C182.746 228.724 177.887 235.731 181.54 241.042L277.938 381.185C280.355 384.7 279.094 389.541 275.268 391.429L166.523 445.098C161.356 447.647 161.311 454.999 166.445 457.613L288.429 519.707C292.791 521.927 293.586 527.824 289.968 531.12L220.014 594.842C216.588 597.963 217.086 603.491 221.013 605.95L296.67 653.325C299.581 655.148 300.74 658.813 299.405 661.978L274.048 722.116C272.187 726.531 275.212 731.47 279.991 731.817L349.735 736.887C354.14 737.207 357.151 741.476 355.975 745.733L345.856 782.352C344.456 787.416 348.927 792.16 354.065 791.062L404.455 780.301C404.935 780.198 405.425 780.146 405.917 780.146Z" fill="#9ACEE8"/>
<rect x="380" y="269" width="328" height="328" rx="164" fill="#7C5A41"/>
<rect x="372" y="256" width="344" height="568" rx="172" fill="#E2D4CC"/>
<circle cx="460" cy="467" r="60" fill="white"/>
<circle cx="628" cy="467" r="60" fill="white"/>
<circle cx="719" cy="627" r="48" fill="#E2D4CC"/>
<rect x="400" y="498" width="120" height="29" fill="#E2D4CC"/>
<rect x="400" y="407" width="120" height="29" fill="#E2D4CC"/>
<rect x="568" y="498" width="120" height="29" fill="#E2D4CC"/>
<rect x="568" y="407" width="120" height="29" fill="#E2D4CC"/>
<circle cx="368" cy="627" r="48" fill="#E2D4CC"/>
<path opacity="0.1" d="M532 545C532 542.791 530.209 541 528 541C525.791 541 524 542.791 524 545H532ZM564 545C564 542.791 562.209 541 560 541C557.791 541 556 542.791 556 545H564ZM524 545V585H532V545H524ZM564 585V545H556V585H564ZM544 605C555.046 605 564 596.046 564 585H556C556 591.627 550.627 597 544 597V605ZM524 585C524 596.046 532.954 605 544 605V597C537.373 597 532 591.627 532 585H524Z" fill="black"/>
<path opacity="0.1" d="M496.884 696.267C498.271 697.174 500.13 696.785 501.037 695.398C501.943 694.012 501.554 692.153 500.168 691.246L496.884 696.267ZM483.749 716.354C485.136 717.261 486.995 716.872 487.902 715.485C488.809 714.098 488.42 712.239 487.033 711.332L483.749 716.354ZM500.168 691.246L496.82 689.057L493.536 694.078L496.884 696.267L500.168 691.246ZM480.401 714.165L483.749 716.354L487.033 711.332L483.685 709.143L480.401 714.165ZM476.056 693.402C471.523 700.335 473.468 709.631 480.401 714.165L483.685 709.143C479.525 706.423 478.358 700.845 481.078 696.685L476.056 693.402ZM496.82 689.057C489.886 684.523 480.59 686.468 476.056 693.402L481.078 696.685C483.798 692.525 489.376 691.358 493.536 694.078L496.82 689.057Z" fill="black"/>
<path opacity="0.1" d="M590.642 696.267C589.255 697.174 587.396 696.785 586.489 695.398C585.582 694.012 585.971 692.153 587.358 691.246L590.642 696.267ZM603.777 716.354C602.39 717.261 600.531 716.872 599.624 715.485C598.717 714.098 599.106 712.239 600.493 711.332L603.777 716.354ZM587.358 691.246L590.706 689.057L593.99 694.078L590.642 696.267L587.358 691.246ZM607.124 714.165L603.777 716.354L600.493 711.332L603.841 709.143L607.124 714.165ZM611.469 693.402C616.003 700.335 614.058 709.631 607.124 714.165L603.841 709.143C608.001 706.423 609.168 700.845 606.448 696.685L611.469 693.402ZM590.706 689.057C597.639 684.523 606.936 686.468 611.469 693.402L606.448 696.685C603.727 692.525 598.15 691.358 593.99 694.078L590.706 689.057Z" fill="black"/>
<path d="M523 720H543V735C543 740.523 538.523 745 533 745C527.477 745 523 740.523 523 735V720Z" fill="#8DE285"/>
<path d="M543 720H564V771.5C564 777.299 559.299 782 553.5 782C547.701 782 543 777.299 543 771.5V720Z" fill="#8DE285"/>
<path d="M564 717.852L584 710V753C584 758.523 579.523 763 574 763C568.477 763 564 758.523 564 753V717.852Z" fill="#8DE285"/>
<path opacity="0.1" d="M413 534.246C428.6 555.68 458.621 560.409 480.055 544.809" stroke="black" stroke-width="8" stroke-linecap="round"/>
<path opacity="0.1" d="M675.11 534.246C659.51 555.68 629.489 560.409 608.055 544.809" stroke="black" stroke-width="8" stroke-linecap="round"/>
<path d="M593.877 705.149C575.132 723.894 512.746 723.471 494 704.726" stroke="black" stroke-width="8" stroke-linecap="round"/>
<path d="M458.671 460.883C458.991 459.467 461.009 459.467 461.329 460.883C461.536 461.801 462.59 462.238 463.385 461.735C464.613 460.96 466.04 462.387 465.265 463.615C464.762 464.41 465.199 465.464 466.117 465.671C467.533 465.991 467.533 468.009 466.117 468.329C465.199 468.536 464.762 469.59 465.265 470.385C466.04 471.613 464.613 473.04 463.385 472.265C462.59 471.762 461.536 472.199 461.329 473.117C461.009 474.533 458.991 474.533 458.671 473.117C458.464 472.199 457.41 471.762 456.615 472.265C455.387 473.04 453.96 471.613 454.735 470.385C455.238 469.59 454.801 468.536 453.883 468.329C452.467 468.009 452.467 465.991 453.883 465.671C454.801 465.464 455.238 464.41 454.735 463.615C453.96 462.387 455.387 460.96 456.615 461.735C457.41 462.238 458.464 461.801 458.671 460.883Z" fill="black"/>
<path d="M626.671 460.883C626.991 459.467 629.009 459.467 629.329 460.883C629.536 461.801 630.59 462.238 631.385 461.735C632.613 460.96 634.04 462.387 633.265 463.615C632.762 464.41 633.199 465.464 634.117 465.671C635.533 465.991 635.533 468.009 634.117 468.329C633.199 468.536 632.762 469.59 633.265 470.385C634.04 471.613 632.613 473.04 631.385 472.265C630.59 471.762 629.536 472.199 629.329 473.117C629.009 474.533 626.991 474.533 626.671 473.117C626.464 472.199 625.41 471.762 624.615 472.265C623.387 473.04 621.96 471.613 622.735 470.385C623.238 469.59 622.801 468.536 621.883 468.329C620.467 468.009 620.467 465.991 621.883 465.671C622.801 465.464 623.238 464.41 622.735 463.615C621.96 462.387 623.387 460.96 624.615 461.735C625.41 462.238 626.464 461.801 626.671 460.883Z" fill="black"/>
<rect x="400" y="388" width="288" height="24" rx="12" fill="#9ACEE8"/>
</g>
<defs>
<filter id="filter0_d_1_10" x="0" y="0" width="1088" height="1088" filterUnits="userSpaceOnUse" color-interpolation-filters="sRGB">
<feFlood flood-opacity="0" result="BackgroundImageFix"/>
<feColorMatrix in="SourceAlpha" type="matrix" values="0 0 0 0 0 0 0 0 0 0 0 0 0 0 0 0 0 0 127 0" result="hardAlpha"/>
<feOffset dy="4"/>
<feGaussianBlur stdDeviation="2"/>
<feComposite in2="hardAlpha" operator="out"/>
<feColorMatrix type="matrix" values="0 0 0 0 0 0 0 0 0 0 0 0 0 0 0 0 0 0 0.25 0"/>
<feBlend mode="normal" in2="BackgroundImageFix" result="effect1_dropShadow_1_10"/>
<feBlend mode="normal" in="SourceGraphic" in2="effect1_dropShadow_1_10" result="shape"/>
</filter>
</defs>
</svg>
